<svg xmlns="http://www.w3.org/2000/svg" x="0px" y="0px" width="50" height="50" viewBox="0 0 100 100">
<path d="M86.5,18h-40h-1.332c-0.303-0.472-0.657-0.911-1.076-1.292l-4.438-4.034 c-1.199-1.092-2.75-1.693-4.368-1.693l-0.316,0.008c-1.734,0.083-3.332,0.836-4.5,2.121l-3.793,4.173 c-1.177-1.006-2.678-1.56-4.228-1.56c-0.161,0-0.325,0.006-0.525,0.021c-1.707,0.129-3.293,0.948-4.408,2.249l-3.904,4.557 c-2.32,2.708-1.691,6.658,1.006,8.99L28,37c1.182,1.024-2.064,4.028-0.501,4.028c0.46,0,0.916-0.052,1.361-0.147l-2.183,2.402 l-0.003-0.003c-0.886-0.886-2.062-1.424-3.312-1.515c-0.583-0.042-0.972-0.063-1.506-0.016c-1.692,0.152-3.254,0.976-4.36,2.266 l-3.884,4.533c-2.32,2.708-1.823,6.626,0.873,8.959L32,63c1.182,1.024-6.064,4.028-4.501,4.028c0.46,0,0.916-0.052,1.361-0.147 l-2.183,2.402c-1.177-1.006-2.676-1.561-4.221-1.561c-0.165,0-0.33,0.006-0.499,0.019c-1.775,0.135-3.404,1.041-4.562,2.393 l-3.783,4.415c-2.32,2.708-1.84,6.674,0.856,9.006l8.947,7.748c1.182,1.024,2.52,1.725,4.083,1.725c1.785,0,3.512-0.746,4.738-2.05 l7.864-8.372C40.629,85.664,43.294,88,46.5,88h40c3.415,0,6.218-2.649,6.475-6H93v-0.5v-6v-20v-6v-19v-6v0 C93,20.91,90.09,18,86.5,18L86.5,18z" opacity=".35"></path><path fill="#f2f2f2" d="M84.5,16h-40c-0.426,0-0.842,0.044-1.245,0.123c-0.319-0.521-0.707-1-1.163-1.414l-4.438-4.034 c-1.199-1.092-2.75-1.693-4.368-1.693L32.97,8.989c-1.734,0.083-3.332,0.836-4.5,2.121l-3.793,4.173 c-1.177-1.006-2.678-1.56-4.228-1.56c-0.154,0-0.311,0.005-0.499,0.019c-1.731,0.134-3.306,0.934-4.434,2.25l-3.904,4.557 c-2.32,2.708-2.015,6.81,0.682,9.143l8.947,7.748c1.182,1.024,2.694,1.589,4.258,1.589c0.46,0,0.916-0.052,1.361-0.147 l-2.183,2.402l-0.003-0.003c-1.177-1.004-2.676-1.558-4.221-1.558c-0.162,0-0.325,0.006-0.503,0.02 c-1.731,0.134-3.306,0.934-4.434,2.25l-3.904,4.557c-2.32,2.708-2.015,6.81,0.682,9.143l8.947,7.748 c1.182,1.024,2.694,1.589,4.258,1.589c0.46,0,0.916-0.052,1.361-0.147l-2.183,2.402c-1.177-1.006-2.676-1.561-4.221-1.561 c-0.167,0-0.335,0.006-0.506,0.02c-1.731,0.134-3.306,0.934-4.434,2.25l-3.904,4.557c-2.32,2.708-2.015,6.81,0.682,9.143 l8.947,7.748c1.182,1.024,2.694,1.589,4.258,1.589c1.785,0,3.512-0.746,4.738-2.05l7.864-8.372C38.629,83.664,41.294,86,44.5,86h40 c3.584,0,6.5-2.916,6.5-6.5v-6v-20v-6v-19v-1.815V22.5C91,18.916,88.084,16,84.5,16z"></path><rect width="40" height="6" x="44.5" y="47.5" fill="#70bfff"></rect><polygon fill="#96c362" points="25.499,32.528 16.548,24.778 20.452,20.222 25.24,24.326 33.28,15.482 37.72,19.518"></polygon><polygon fill="#96c362" points="25.499,58.528 16.548,50.778 20.452,46.222 25.24,50.326 33.28,41.482 37.72,45.518"></polygon><polygon fill="#96c362" points="25.499,84.528 16.548,76.778 20.452,72.222 25.24,76.326 33.28,67.482 37.72,71.518"></polygon><rect width="40" height="6" x="44.5" y="22.5" fill="#70bfff"></rect><rect width="40" height="6" x="44.5" y="47.5" fill="#70bfff"></rect><rect width="40" height="6" x="44.5" y="73.5" fill="#70bfff"></rect><polygon fill="none" stroke="#40396e" stroke-linecap="round" stroke-linejoin="round" stroke-miterlimit="10" stroke-width="3" points="25.499,32.528 16.548,24.778 20.452,20.222 25.24,24.326 33.28,15.482 37.72,19.518"></polygon><rect width="40" height="6" x="44.5" y="22.5" fill="none" stroke="#40396e" stroke-linecap="round" stroke-linejoin="round" stroke-miterlimit="10" stroke-width="3"></rect><polygon fill="none" stroke="#40396e" stroke-linecap="round" stroke-linejoin="round" stroke-miterlimit="10" stroke-width="3" points="25.499,58.528 16.548,50.778 20.452,46.222 25.24,50.326 33.28,41.482 37.72,45.518"></polygon><rect width="40" height="6" x="44.5" y="47.5" fill="none" stroke="#40396e" stroke-linecap="round" stroke-linejoin="round" stroke-miterlimit="10" stroke-width="3"></rect><polygon fill="none" stroke="#40396e" stroke-linecap="round" stroke-linejoin="round" stroke-miterlimit="10" stroke-width="3" points="25.499,84.528 16.548,76.778 20.452,72.222 25.24,76.326 33.28,67.482 37.72,71.518"></polygon><rect width="40" height="6" x="44.5" y="73.5" fill="none" stroke="#40396e" stroke-linecap="round" stroke-linejoin="round" stroke-miterlimit="10" stroke-width="3"></rect>
</svg>